HIERARCHY
ROOT Hips
{
	OFFSET 0.00000 0.00000 0.00000
	CHANNELS 6 Xposition Yposition Zposition Zrotation Yrotation Xrotation 
	JOINT LHipJoint
	{
		OFFSET 0 0 0
		CHANNELS 3 Zrotation Yrotation Xrotation
		JOINT LeftUpLeg
		{
			OFFSET 1.41261 -1.82971 0.84908
			CHANNELS 3 Zrotation Yrotation Xrotation
			JOINT LeftLeg
			{
				OFFSET 2.52554 -6.93888 0.00000
				CHANNELS 3 Zrotation Yrotation Xrotation
				JOINT LeftFoot
				{
					OFFSET 2.56654 -7.05152 0.00000
					CHANNELS 3 Zrotation Yrotation Xrotation
					JOINT LeftToeBase
					{
						OFFSET 0.21698 -0.59616 1.85369
						CHANNELS 3 Zrotation Yrotation Xrotation
						End Site
						{
							OFFSET 0.00000 -0.00000 0.97832
						}
					}
				}
			}
		}
	}
	JOINT RHipJoint
	{
		OFFSET 0 0 0
		CHANNELS 3 Zrotation Yrotation Xrotation
		JOINT RightUpLeg
		{
			OFFSET -1.12808 -1.82971 0.84907
			CHANNELS 3 Zrotation Yrotation Xrotation
			JOINT RightLeg
			{
				OFFSET -2.53425 -6.96280 0.00000
				CHANNELS 3 Zrotation Yrotation Xrotation
				JOINT RightFoot
				{
					OFFSET -2.58413 -7.09983 0.00000
					CHANNELS 3 Zrotation Yrotation Xrotation
					JOINT RightToeBase
					{
						OFFSET -0.26437 -0.72636 1.92241
						CHANNELS 3 Zrotation Yrotation Xrotation
						End Site
						{
							OFFSET -0.00000 -0.00000 1.02667
						}
					}
				}
			}
		}
	}
	JOINT LowerBack
	{
		OFFSET 0 0 0
		CHANNELS 3 Zrotation Yrotation Xrotation
		JOINT Spine
		{
			OFFSET -0.02096 2.02288 -0.14752
			CHANNELS 3 Zrotation Yrotation Xrotation
			JOINT Spine1
			{
				OFFSET 0.03477 2.03136 -0.02358
				CHANNELS 3 Zrotation Yrotation Xrotation
				JOINT Neck
				{
					OFFSET 0 0 0
					CHANNELS 3 Zrotation Yrotation Xrotation
					JOINT Neck1
					{
						OFFSET 0.00174 1.74359 0.19336
						CHANNELS 3 Zrotation Yrotation Xrotation
						JOINT Head
						{
							OFFSET -0.03054 1.76140 -0.17751
							CHANNELS 3 Zrotation Yrotation Xrotation
							End Site
							{
								OFFSET -0.00863 1.77239 -0.08120
							}
						}
					}
				}
				JOINT LeftShoulder
				{
					OFFSET 0 0 0
					CHANNELS 3 Zrotation Yrotation Xrotation
					JOINT LeftArm
					{
						OFFSET 3.68685 1.32687 -0.67367
						CHANNELS 3 Zrotation Yrotation Xrotation
						JOINT LeftForeArm
						{
							OFFSET 4.76468 -0.00000 -0.00000
							CHANNELS 3 Zrotation Yrotation Xrotation
							JOINT LeftHand
							{
								OFFSET 3.52712 -0.00000 -0.00000
								CHANNELS 3 Zrotation Yrotation Xrotation
								JOINT LeftFingerBase
								{
									OFFSET 0 0 0
									CHANNELS 3 Zrotation Yrotation Xrotation
									JOINT LeftHandIndex1
									{
										OFFSET 0.85956 -0.00000 -0.00000
										CHANNELS 3 Zrotation Yrotation Xrotation
										End Site
										{
											OFFSET 0.69300 -0.00000 -0.00000
										}
									}
								}
								JOINT LThumb
								{
									OFFSET 0 0 0
									CHANNELS 3 Zrotation Yrotation Xrotation
									End Site
									{
										OFFSET 0.70358 -0.00000 0.70358
									}
								}
							}
						}
					}
				}
				JOINT RightShoulder
				{
					OFFSET 0 0 0
					CHANNELS 3 Zrotation Yrotation Xrotation
					JOINT RightArm
					{
						OFFSET -3.31304 1.28268 -0.97357
						CHANNELS 3 Zrotation Yrotation Xrotation
						JOINT RightForeArm
						{
							OFFSET -4.90577 -0.00000 -0.00000
							CHANNELS 3 Zrotation Yrotation Xrotation
							JOINT RightHand
							{
								OFFSET -3.42692 -0.00000 0.00000
								CHANNELS 3 Zrotation Yrotation Xrotation
								JOINT RightFingerBase
								{
									OFFSET 0 0 0
									CHANNELS 3 Zrotation Yrotation Xrotation
									JOINT RightHandIndex1
									{
										OFFSET -0.74096 -0.00000 -0.00000
										CHANNELS 3 Zrotation Yrotation Xrotation
										End Site
										{
											OFFSET -0.59738 -0.00000 -0.00000
										}
									}
								}
								JOINT RThumb
								{
									OFFSET 0 0 0
									CHANNELS 3 Zrotation Yrotation Xrotation
									End Site
									{
										OFFSET -0.60650 -0.00000 0.60650
									}
								}
							}
						}
					}
				}
			}
		}
	}
}
MOTION
Frames: 11
Frame Time: .0083333
0.8607 4.0785 -2.8238 -3.0561 4.5253 -61.6976 0.0000 0.0000 0.0000 -8.6535 -7.0797 -71.4511 5.2384 13.6474 41.8428 40.3418 12.2341 177.4301 0.0481 -1.4157 -3.8934 0.0000 0.0000 0.0000 5.1810 -5.7804 -72.4537 -4.4667 -12.7568 38.4646 -40.1774 10.7565 167.7975 -3.9486 -12.0917 36.0573 -2.3433 -1.1960 56.4720 0.1509 -2.7262 10.9713 2.4258 -1.2959 -8.8472 -5.3951 -3.5011 -8.2615 6.2957 -4.8320 11.5295 2.5037 -2.2073 5.1030 0.0000 -0.0000 0.0000 -69.8648 -42.1939 39.9434 57.7460 -55.6788 -32.4725 -0.0000 0.0000 -0.9072 -17.1885 -4.7790 1.4763 -7.1250 0.0000 -0.0000 -31.2050 24.4157 18.2904 0.0000 -0.0000 0.0000 67.0659 42.2475 42.5290 -66.7610 57.8577 -40.0192 0.0000 -0.0000 -4.5923 10.7695 -38.9565 -6.8196 7.1250 -0.0000 -0.0000 53.2835 -60.8105 -24.3578
0.8647 4.0864 -2.8037 -3.1650 4.3257 -61.3557 0.0000 0.0000 0.0000 -8.3858 -7.0540 -71.8481 5.1911 13.5958 41.6418 40.3344 12.1919 177.3144 0.0635 -1.6253 -4.4713 0.0000 0.0000 0.0000 5.4240 -5.8027 -72.7583 -4.4591 -12.7474 38.4302 -40.1567 10.6050 167.6440 -3.9709 -12.1216 36.1635 -2.1485 -1.2956 56.4934 0.2033 -2.7268 10.8969 2.3992 -1.2950 -8.9386 -5.3234 -3.5874 -8.3983 6.2040 -4.9342 11.4005 2.4537 -2.2583 5.0887 0.0000 -0.0000 0.0000 -69.9502 -41.9913 39.6415 58.5264 -55.9043 -33.1178 -0.0000 0.0000 -0.9089 -17.8052 -4.1290 1.3247 -7.1250 0.0000 -0.0000 -31.7532 24.9439 18.2582 0.0000 -0.0000 0.0000 67.0138 42.1940 42.2724 -67.1272 57.9279 -40.3294 0.0000 -0.0000 -5.3725 11.0225 -39.1140 -7.0057 7.1250 -0.0000 -0.0000 53.7140 -60.8479 -24.6723
0.8689 4.0971 -2.7855 -3.1800 4.2831 -60.9530 0.0000 0.0000 0.0000 -8.3146 -7.0755 -72.2297 5.1579 13.5594 41.5003 40.3286 12.1585 177.2255 0.0700 -1.7073 -4.6973 0.0000 0.0000 0.0000 5.4806 -5.8666 -73.0996 -4.4443 -12.7293 38.3633 -40.1397 10.4664 167.5423 -3.9540 -12.0989 36.0827 -2.1621 -1.3356 56.3548 0.2584 -2.7734 10.9061 2.4864 -1.3218 -8.9140 -5.4327 -3.6506 -8.5423 6.2662 -4.9951 11.1637 2.4845 -2.2878 5.0480 -0.0000 0.0000 0.0000 -70.0427 -41.8750 39.2096 59.3179 -56.1254 -33.7741 -0.0000 0.0000 -1.0059 -18.4513 -3.4697 1.1568 -7.1250 0.0000 -0.0000 -32.3267 25.4736 18.2272 -0.0000 0.0000 0.0000 66.9625 42.3054 42.1209 -67.5002 57.9980 -40.6456 0.0000 -0.0000 -5.9341 10.7229 -39.2755 -6.8359 7.1250 -0.0000 -0.0000 53.6690 -61.0282 -24.8736
0.8723 4.1081 -2.7669 -3.1353 4.4591 -60.5082 0.0000 0.0000 0.0000 -8.4787 -7.2044 -72.5788 5.1375 13.5370 41.4134 40.3229 12.1437 177.1105 0.0704 -1.7113 -4.7086 0.0000 0.0000 0.0000 5.2984 -6.0338 -73.5242 -4.4152 -12.6934 38.2312 -40.1195 10.3115 167.4057 -3.9852 -12.1407 36.2315 -2.3265 -1.3752 56.1113 0.2666 -2.9098 10.9543 2.6275 -1.3901 -8.8298 -5.6147 -3.6626 -8.7700 6.4319 -4.9889 10.9955 2.5632 -2.2788 5.0430 0.0000 -0.0000 0.0000 -70.0764 -41.7913 38.6896 60.0450 -56.3219 -34.3786 -0.0000 0.0000 -1.2629 -18.9750 -2.9905 1.0277 -7.1250 0.0000 -0.0000 -32.7789 25.8504 18.2293 0.0000 -0.0000 0.0000 66.9455 42.4528 42.0308 -67.8989 58.0714 -40.9838 0.0000 -0.0000 -6.3556 9.3898 -39.4640 -6.0001 7.1250 -0.0000 -0.0000 52.7552 -61.4930 -24.8840
0.8748 4.1160 -2.7490 -3.1325 4.5465 -60.0953 0.0000 0.0000 0.0000 -8.5241 -7.3187 -72.9718 5.1089 13.5054 41.2911 40.3155 12.1539 176.9213 0.0785 -1.8072 -4.9732 0.0000 0.0000 0.0000 5.2414 -6.1640 -73.9934 -4.3757 -12.6442 38.0509 -40.1045 10.2138 167.2772 -4.0164 -12.1822 36.3797 -2.3457 -1.4679 55.9230 0.2269 -3.0333 10.9516 2.6468 -1.4458 -8.8153 -5.6826 -3.6726 -8.9569 6.5336 -4.9949 10.9483 2.6029 -2.2749 5.0648 -0.0000 -0.0000 0.0000 -70.0023 -41.6592 38.2650 60.7178 -56.4982 -34.9390 -0.0000 0.0000 -1.6591 -19.2632 -2.6603 0.9293 -7.1250 0.0000 -0.0000 -33.0482 26.1156 18.1860 -0.0000 -0.0000 0.0000 67.0041 42.4953 41.9066 -68.3185 58.1470 -41.3401 0.0000 -0.0000 -6.7349 8.7059 -39.6790 -5.5841 7.1250 -0.0000 -0.0000 52.4473 -61.8107 -25.0816
0.8757 4.1208 -2.7307 -3.0608 4.6080 -59.6586 0.0000 0.0000 0.0000 -8.5606 -7.3786 -73.4463 5.0696 13.4618 41.1225 40.3051 12.1618 176.6710 0.0894 -1.9285 -5.3082 0.0000 0.0000 0.0000 5.1835 -6.1715 -74.5543 -4.3256 -12.5815 37.8213 -40.0939 10.1415 167.1917 -4.0273 -12.1966 36.4312 -2.3896 -1.4804 55.6567 0.1794 -3.0752 10.9410 2.6326 -1.4628 -8.8062 -5.6686 -3.7269 -8.9770 6.5567 -5.0653 10.8070 2.6022 -2.3079 5.0294 0.0000 -0.0000 0.0000 -69.9777 -41.5310 38.0432 61.3606 -56.6617 -35.4755 -0.0000 0.0000 -1.9907 -19.4307 -2.4042 0.8478 -7.1250 0.0000 -0.0000 -33.2242 26.3260 18.1186 0.0000 -0.0000 0.0000 67.0523 42.4454 41.6764 -68.8015 58.2320 -41.7505 0.0000 -0.0000 -7.0630 10.4947 -39.9827 -6.7879 7.1250 -0.0000 -0.0000 54.4377 -61.5379 -26.0098
0.8749 4.1237 -2.7129 -2.9973 4.6111 -59.2573 0.0000 0.0000 0.0000 -8.5313 -7.3867 -73.8954 5.0300 13.4175 40.9521 40.2972 12.1488 176.5115 0.0953 -1.9912 -5.4812 0.0000 0.0000 0.0000 5.1741 -6.1294 -75.0519 -4.2887 -12.5350 37.6519 -40.0854 10.0653 167.1538 -4.0385 -12.2115 36.4844 -2.4301 -1.4562 55.3399 0.1753 -3.0630 10.9844 2.6393 -1.4598 -8.7312 -5.7219 -3.8057 -8.8915 6.5668 -5.1542 10.4976 2.6090 -2.3568 4.9270 0.0000 0.0000 0.0000 -70.0553 -41.5077 37.9127 61.9034 -56.7962 -35.9293 -0.0000 0.0000 -2.2390 -19.5606 -2.1490 0.7633 -7.1250 0.0000 -0.0000 -33.3782 26.5390 18.0287 0.0000 0.0000 0.0000 67.0383 42.4295 41.3924 -69.1658 58.2946 -42.0604 0.0000 -0.0000 -7.3019 9.1218 -39.8818 -5.8782 7.1250 -0.0000 -0.0000 53.0959 -61.8328 -25.5197
0.8728 4.1287 -2.6999 -2.9804 4.5045 -59.0761 0.0000 0.0000 0.0000 -8.3991 -7.2973 -74.0962 5.0053 13.3897 40.8455 40.2939 12.1487 176.4396 0.0995 -2.0346 -5.6014 0.0000 0.0000 0.0000 5.2916 -6.1076 -75.2288 -4.2791 -12.5228 37.6075 -40.0807 10.0379 167.1094 -4.0446 -12.2196 36.5132 -2.4378 -1.4464 55.2638 0.1764 -3.0555 11.0429 2.6388 -1.4602 -8.6588 -5.7322 -3.8431 -8.8433 6.5607 -5.1899 10.2014 2.6074 -2.3780 4.8302 0.0000 0.0000 0.0000 -69.9918 -41.4968 37.6766 62.4158 -56.9200 -36.3583 -0.0000 0.0000 -2.5185 -19.7076 -1.8880 0.6761 -7.1250 0.0000 -0.0000 -33.5452 26.7552 17.9433 0.0000 0.0000 0.0000 67.1993 42.4761 41.2443 -69.4272 58.3388 -42.2828 0.0000 -0.0000 -7.4070 8.8833 -39.9018 -5.7253 7.1250 -0.0000 -0.0000 52.9138 -61.9085 -25.4971
0.8715 4.1364 -2.6914 -2.9998 4.4051 -58.9712 0.0000 0.0000 0.0000 -8.2617 -7.2570 -74.1830 4.9926 13.3754 40.7905 40.2918 12.1776 176.3539 0.0990 -2.0287 -5.5851 0.0000 0.0000 0.0000 5.4197 -6.1599 -75.2743 -4.2804 -12.5245 37.6138 -40.0719 9.9900 167.0191 -4.0601 -12.2400 36.5864 -2.4240 -1.4519 55.2870 0.1865 -3.0545 11.0863 2.6421 -1.4629 -8.6115 -5.6800 -3.8968 -8.8541 6.5034 -5.2511 9.9850 2.5767 -2.4108 4.7665 0.0000 0.0000 0.0000 -69.8722 -41.4480 37.4496 62.9231 -57.0398 -36.7837 -0.0000 0.0000 -2.7478 -19.7098 -1.8060 0.6469 -7.1250 0.0000 -0.0000 -33.5713 26.8274 17.8911 0.0000 0.0000 0.0000 67.3995 42.4971 41.1148 -69.7496 58.3924 -42.5573 0.0000 -0.0000 -7.3999 9.1346 -39.9464 -5.8944 7.1250 -0.0000 -0.0000 53.1973 -61.8710 -25.6317
0.8716 4.1418 -2.6837 -3.0668 4.3105 -58.7777 0.0000 0.0000 0.0000 -8.0844 -7.3123 -74.3811 4.9755 13.3562 40.7168 40.2912 12.2019 176.3083 0.0973 -2.0119 -5.5386 0.0000 0.0000 0.0000 5.5723 -6.2099 -75.4528 -4.2726 -12.5146 37.5778 -40.0601 9.9071 166.9301 -4.0334 -12.2048 36.4603 -2.3227 -1.5289 55.2021 0.1908 -3.0876 11.1077 2.6151 -1.4791 -8.5832 -5.6418 -3.9809 -8.8697 6.3463 -5.3435 9.8469 2.5149 -2.4646 4.7272 -0.0000 -0.0000 0.0000 -69.8242 -41.3433 37.2622 63.4619 -57.1640 -37.2361 -0.0000 0.0000 -2.7851 -19.5672 -1.8417 0.6545 -7.1250 0.0000 -0.0000 -33.4748 26.8102 17.8336 -0.0000 -0.0000 0.0000 67.5478 42.4635 41.0342 -70.2011 58.4658 -42.9420 0.0000 -0.0000 -7.3372 9.1731 -39.9458 -5.9194 7.1250 -0.0000 -0.0000 53.2305 -61.8605 -25.6399
0.8706 4.1432 -2.6757 -3.0741 4.2506 -58.5800 0.0000 0.0000 0.0000 -7.9672 -7.3428 -74.6016 4.9550 13.3330 40.6281 40.2900 12.2185 176.2598 0.0996 -2.0348 -5.6017 0.0000 0.0000 0.0000 5.6647 -6.1917 -75.6942 -4.2565 -12.4941 37.5032 -40.0538 9.8625 166.8837 -4.0040 -12.1657 36.3207 -2.2848 -1.5907 55.0901 0.1596 -3.1442 11.1138 2.5883 -1.5047 -8.5681 -5.6826 -4.0404 -8.8654 6.2876 -5.4085 9.7823 2.4986 -2.5019 4.7102 -0.0000 -0.0000 0.0000 -69.7169 -41.2009 37.0778 64.0401 -57.2938 -37.7223 -0.0000 0.0000 -2.7126 -19.4648 -1.8126 0.6405 -7.1250 0.0000 -0.0000 -33.4218 26.8461 17.7569 -0.0000 -0.0000 0.0000 67.7176 42.4029 41.0762 -70.7256 58.5487 -43.3893 0.0000 -0.0000 -7.2333 9.1792 -40.1130 -5.9438 7.1250 -0.0000 -0.0000 53.4705 -61.9660 -25.9246
